<svg xmlns="http://www.w3.org/2000/svg" width="16" height="16" viewBox="0 0 16 16" fill="none">
    <path d="M11.1956 9.06667C11.3232 8.72558 11.3879 8.36418 11.3867 8C11.3867 7.19138 11.0655 6.41589 10.4937 5.84411C9.9219 5.27233 9.1464 4.95111 8.33778 4.95111C7.97809 4.95153 7.62137 5.01625 7.28445 5.14222L8.00001 5.88C8.10878 5.8626 8.21874 5.85368 8.32889 5.85333C8.90064 5.85214 9.44964 6.07722 9.856 6.47942C10.2624 6.88162 10.4931 7.42827 10.4978 8C10.4974 8.11015 10.4885 8.22011 10.4711 8.32889L11.1956 9.06667Z" fill="#BFBFBF"/>
    <path d="M15.24 7.79113C13.7422 5.02224 11.1156 3.34668 8.20889 3.34668C7.41749 3.34854 6.6314 3.47605 5.88 3.72446L6.59555 4.44446C7.1226 4.30825 7.66453 4.23808 8.20889 4.23557C10.7111 4.23557 12.9867 5.63112 14.3422 7.98224C13.845 8.85451 13.1858 9.62383 12.4 10.2489L13.0311 10.88C13.9405 10.1464 14.6957 9.2401 15.2533 8.21335L15.3689 8.00001L15.24 7.79113Z" fill="#BFBFBF"/>
    <path d="M2.16443 2.56889L4.14665 4.55111C2.89373 5.35783 1.86972 6.47368 1.17332 7.79111L1.05776 8L1.17332 8.21334C2.6711 10.9822 5.29776 12.6578 8.20443 12.6578C9.33894 12.6575 10.4587 12.4008 11.48 11.9067L13.7022 14.1289L14.48 13.4622L2.92443 1.90667L2.16443 2.56889ZM6.49776 6.90222L9.45332 9.85778C9.11937 10.0645 8.73494 10.1752 8.34221 10.1778C8.05684 10.1778 7.77429 10.1214 7.51082 10.0118C7.24734 9.90215 7.00814 9.74152 6.80698 9.53912C6.60582 9.33672 6.44666 9.09654 6.33868 8.83239C6.23069 8.56825 6.176 8.28536 6.17776 8C6.18277 7.61181 6.29339 7.23231 6.49776 6.90222ZM5.85332 6.25778C5.43751 6.84418 5.24262 7.5588 5.30315 8.27511C5.36367 8.99142 5.67572 9.6632 6.18403 10.1715C6.69234 10.6798 7.36413 10.9919 8.08043 11.0524C8.79674 11.1129 9.51136 10.918 10.0978 10.5022L10.8089 11.2133C9.98566 11.5652 9.09969 11.7466 8.20443 11.7467C5.70221 11.7467 3.42665 10.3511 2.0711 8C2.72163 6.8481 3.65853 5.88365 4.79109 5.2L5.85332 6.25778Z" fill="#BFBFBF"/>
</svg>