<svg xmlns="http://www.w3.org/2000/svg" width="18" height="18" viewBox="0 0 18 18" fill="none">
    <g clip-path="url(#clip0_112_38)">
        <path d="M17.075 8.58979C17.075 3.84508 13.2524 -0.00106812 8.53752 -0.00106812C3.82055 -9.27597e-07 -0.00211954 3.84508 -0.00211954 8.59086C-0.00211954 12.8778 3.12047 16.4315 7.2014 17.0761V11.0731H5.03501V8.59086H7.20353V6.6966C7.20353 4.54408 8.47882 3.35524 10.4286 3.35524C11.3634 3.35524 12.3399 3.52279 12.3399 3.52279V5.63582H11.2631C10.2034 5.63582 9.87257 6.29854 9.87257 6.97834V8.58979H12.2396L11.8618 11.0721H9.8715V17.075C13.9524 16.4304 17.075 12.8767 17.075 8.58979Z" fill="#059BE5"/>
    </g>
    <defs>
        <clipPath id="clip0_112_38">
            <rect width="17.075" height="17.075" rx="8.5375" fill="white"/>
        </clipPath>
    </defs>
</svg>