<svg xmlns="http://www.w3.org/2000/svg" width="18" height="18" viewBox="0 0 18 18" fill="none">
  <g clip-path="url(#clip0_112_31)">
    <path fill-rule="evenodd" clip-rule="evenodd" d="M8.5375 0C3.82053 0 0 3.82053 0 8.5375C0 12.3153 2.44386 15.5062 5.83752 16.6375C6.26439 16.7122 6.42447 16.456 6.42447 16.2319C6.42447 16.0292 6.4138 15.3568 6.4138 14.6418C4.26875 15.0367 3.71381 14.1189 3.54306 13.6387C3.44702 13.3932 3.03081 12.6355 2.66797 12.4327C2.36916 12.2727 1.94228 11.8778 2.6573 11.8671C3.32963 11.8565 3.80986 12.4861 3.96994 12.7422C4.73831 14.0335 5.96558 13.6707 6.45648 13.4466C6.53119 12.8916 6.7553 12.5181 7.00075 12.3047C5.10116 12.0912 3.11619 11.3549 3.11619 8.08928C3.11619 7.16083 3.44702 6.39245 3.99128 5.79483C3.90591 5.58139 3.60709 4.7063 4.07666 3.53239C4.07666 3.53239 4.79167 3.30828 6.42447 4.40748C7.10747 4.21539 7.83316 4.11934 8.55884 4.11934C9.28453 4.11934 10.0102 4.21539 10.6932 4.40748C12.326 3.29761 13.041 3.53239 13.041 3.53239C13.5106 4.7063 13.2118 5.58139 13.1264 5.79483C13.6707 6.39245 14.0015 7.15016 14.0015 8.08928C14.0015 11.3655 12.0059 12.0912 10.1063 12.3047C10.4158 12.5715 10.6825 13.0837 10.6825 13.8841C10.6825 15.026 10.6719 15.9438 10.6719 16.2319C10.6719 16.456 10.832 16.7228 11.2588 16.6375C12.9536 16.0652 14.4264 14.976 15.4697 13.5229C16.5131 12.0699 17.0745 10.3263 17.075 8.5375C17.075 3.82053 13.2545 0 8.5375 0Z" fill="black"/>
  </g>
  <defs>
    <clipPath id="clip0_112_31">
      <rect width="17.075" height="17.075" rx="8.5375" fill="white"/>
    </clipPath>
  </defs>
</svg>