<svg xmlns="http://www.w3.org/2000/svg" width="18" height="18" viewBox="0 0 18 18" fill="none">
  <g clip-path="url(#clip0_112_25)">
    <path d="M16.9087 6.86531H16.221V6.82988H8.53735V10.2448H13.3622C12.6583 12.2327 10.7669 13.6598 8.53735 13.6598C5.7085 13.6598 3.41494 11.3662 3.41494 8.53735C3.41494 5.7085 5.7085 3.41494 8.53735 3.41494C9.84314 3.41494 11.0311 3.90755 11.9356 4.71219L14.3504 2.2974C12.8257 0.876359 10.7861 0 8.53735 0C3.8226 0 0 3.8226 0 8.53735C0 13.2521 3.8226 17.0747 8.53735 17.0747C13.2521 17.0747 17.0747 13.2521 17.0747 8.53735C17.0747 7.96492 17.0158 7.40615 16.9087 6.86531Z" fill="#FFC107"/>
    <path d="M0.983826 4.56364L3.78877 6.62072C4.54774 4.74165 6.38584 3.41494 8.53682 3.41494C9.84261 3.41494 11.0306 3.90755 11.9351 4.71219L14.3499 2.2974C12.8251 0.876359 10.7856 0 8.53682 0C5.25762 0 2.41383 1.85132 0.983826 4.56364Z" fill="#FF3D00"/>
    <path d="M8.53747 17.075C10.7427 17.075 12.7464 16.2311 14.2613 14.8587L11.619 12.6228C10.7331 13.2965 9.65051 13.6609 8.53747 13.66C6.3169 13.66 4.43143 12.2441 3.72112 10.2682L0.937088 12.4132C2.35002 15.178 5.21942 17.075 8.53747 17.075Z" fill="#4CAF50"/>
    <path d="M16.9087 6.86533H16.221V6.8299H8.53737V10.2448H13.3623C13.0255 11.191 12.419 12.0177 11.6176 12.6229L11.6189 12.6221L14.2612 14.858C14.0743 15.0279 17.0747 12.806 17.0747 8.53737C17.0747 7.96494 17.0158 7.40617 16.9087 6.86533Z" fill="#1976D2"/>
  </g>
  <defs>
    <clipPath id="clip0_112_25">
      <rect width="17.075" height="17.075" rx="8.5375" fill="white"/>
    </clipPath>
  </defs>
</svg>